<svg width="118" height="55" viewBox="0 0 118 55" fill="none" xmlns="http://www.w3.org/2000/svg">
<path fill-rule="evenodd" clip-rule="evenodd" d="M4.51333 3.17549C0.146693 3.17549 0.978303 2.8565 0.691429 4.70235C0.457647 6.20651 0 7.95895 0 9.52629H3.67758L0.865368 33.2879C0.669908 35.0767 0 40.1108 0 41.4476H6.8535C6.88805 39.8978 8.35795 31.0923 8.35795 29.4144C10.1506 29.8319 11.6016 29.6355 14.3972 30.5628C20.2928 32.5188 22.8367 36.5883 25.4083 41.4476H32.7634C32.5948 40.7245 32.3393 40.2873 32.0716 39.6323C31.8001 38.9679 31.5498 38.5161 31.1624 37.8673C30.3334 36.4792 30.2682 36.1697 29.1828 34.6655C26.2422 30.5911 22.1346 27.3957 17.4328 25.5224C15.5611 24.7766 11.4428 23.3978 9.02664 23.3978C9.02664 22.4835 9.27739 20.9921 9.40947 19.9367L10.6983 9.35908H27.5814C27.536 11.3942 25.6298 13.9392 23.4282 14.733C21.2112 15.5324 17.3642 15.2085 14.3757 15.2085C14.4892 16.5723 16.8497 19.8137 17.2175 21.3923C22.1026 21.3923 28.2483 21.6453 31.5713 17.1921C33.7525 14.2691 34.611 10.8532 35.4714 7.21993C35.6947 6.27657 36.1065 4.31762 36.1065 3.17549H11.3668C11.5475 2.40092 11.8002 0.820374 11.8683 0H5.01482C4.78402 0.990535 4.74274 2.19089 4.51333 3.17549Z" fill="#1B1918"/>
<path fill-rule="evenodd" clip-rule="evenodd" d="M38.6143 31.4197C38.6143 33.0948 39.3311 34.8005 40.046 35.8376L41.4131 37.4793C44.2699 39.9835 47.7826 41.6145 52.3214 41.6145H73.0493C73.7463 41.6145 73.7322 40.0164 73.9565 38.6777C74.1464 37.5449 74.3865 36.4689 74.3865 35.2636H52.1542C48.9826 35.2636 46.8934 33.7612 46.6547 30.5565L47.17 26.1023C47.5822 22.7385 49.9813 5.43587 49.9813 3.34229H42.1246L38.9785 27.7728C38.8263 29.0346 38.6143 30.1057 38.6143 31.4197Z" fill="#1B1918"/>
<path fill-rule="evenodd" clip-rule="evenodd" d="M79.7354 41.4474H86.4218L87.8546 28.1726C88.0637 26.6483 88.2605 25.1487 88.2605 23.5648C88.6224 23.6957 88.6228 23.7375 88.9352 24.3944C90.1877 27.0281 96.1422 38.1146 96.4514 39.4419L100.965 33.9266C100.456 33.342 91.3703 14.9059 90.378 12.9242C89.5989 11.3686 89.4512 11.4234 89.9322 9.35889H93.777C93.777 7.91219 94.4455 5.0839 94.4455 3.17529H83.9144L79.7354 41.4474Z" fill="#1B1918"/>
<path fill-rule="evenodd" clip-rule="evenodd" d="M107.149 9.35889H111.161C111.161 10.8445 111.255 11.0581 110.475 12.0154L101.466 22.8962C102.555 24.9544 103.555 27.0255 104.642 29.08C105.309 28.8384 106.531 27.0956 107.108 26.532C107.706 25.9479 108.939 24.3025 109.49 23.899C109.49 25.2427 109.174 27.0251 109.019 28.2752C108.834 29.7622 108.665 31.1803 108.501 32.6039L107.484 41.4474H113.669C114.229 41.4474 114.138 41.1545 114.184 40.626C114.828 33.2293 116.041 25.1473 116.682 17.7199C116.975 14.3279 118.182 5.78822 118.182 3.17529H107.818C107.783 4.76552 107.149 7.22427 107.149 9.35889Z" fill="#1B1918"/>
<path fill-rule="evenodd" clip-rule="evenodd" d="M61.3477 9.35888H65.6937C65.4175 12.6779 64.0827 21.746 63.5709 25.6204C63.445 26.5749 63.3524 27.5097 63.2377 28.2956C63.1028 29.2201 62.9218 30.248 62.8521 31.0855H70.8757L74.3861 3.34229H62.0164C62.0164 5.40054 61.3477 7.30084 61.3477 9.35888Z" fill="#1B1918"/>
<path fill-rule="evenodd" clip-rule="evenodd" d="M21.2295 49.9712C21.2295 50.4763 21.4261 50.4333 21.898 50.4725C21.898 55.2514 21.4261 55.152 23.2354 55.152V51.3081C24.0654 51.864 24.4111 52.925 25.2414 53.4808C25.9547 53.2903 25.9235 52.9656 26.3744 52.441C26.7253 52.0326 27.033 51.5635 27.4143 51.3081V55.152C29.1813 55.152 28.7517 55.8097 28.7517 49.9712C28.7517 49.3567 28.3947 49.4698 27.5815 49.4698C26.9231 49.4698 25.9547 51.332 25.2414 51.8095C24.9039 51.3057 24.699 51.0669 24.3114 50.5665C23.3152 49.2801 23.5638 49.4698 21.731 49.4698C21.3458 49.4698 21.2295 49.5861 21.2295 49.9712Z" fill="#1B1918"/>
<path fill-rule="evenodd" clip-rule="evenodd" d="M97.4537 53.982H96.9522V50.6393C97.9472 50.6393 100.128 50.3568 100.128 52.1434C100.128 53.5262 99.5038 53.8965 98.4681 54.0064L97.4537 53.982ZM95.615 50.4723C95.615 55.9853 94.8651 55.1517 98.6238 55.1517C102.264 55.1517 102.403 49.4695 98.4566 49.4695C95.9717 49.4695 94.963 49.1458 94.9668 49.9981C94.9692 50.5477 95.549 50.4667 95.615 50.4723Z" fill="#1B1918"/>
<path fill-rule="evenodd" clip-rule="evenodd" d="M9.02637 49.9712C9.02637 50.4764 9.22301 50.4333 9.69506 50.4726C9.69506 55.2515 9.22301 55.152 11.0323 55.152V51.6423C11.732 52.1108 12.1667 52.7845 12.7411 53.4436C13.8732 54.7426 13.8001 55.152 15.0441 55.152V49.4698C13.5644 49.4698 13.6743 49.3682 13.697 50.7971C13.7069 51.4144 13.7069 52.0276 13.7069 52.6451C13.3425 52.4011 13.2364 52.2955 12.9401 51.9076C11.0423 49.4225 10.9847 49.4698 9.52785 49.4698C9.14265 49.4698 9.02637 49.5861 9.02637 49.9712Z" fill="#1B1918"/>
<path fill-rule="evenodd" clip-rule="evenodd" d="M57.8379 49.971C57.8379 50.4762 58.0345 50.4332 58.5066 50.4724C58.5066 55.2513 58.0345 55.1519 59.8438 55.1519V51.6422C61.6882 52.8771 62.0045 55.1519 63.8557 55.1519V49.4697C62.1437 49.4697 62.5184 49.17 62.5184 52.6449C61.5654 52.007 60.0472 49.4697 59.3423 49.4697C58.2667 49.4697 57.8379 49.3212 57.8379 49.971Z" fill="#1B1918"/>
<path fill-rule="evenodd" clip-rule="evenodd" d="M86.0879 49.8037C86.0879 50.3116 86.3777 50.3712 86.7564 50.4723C86.7564 52.1807 86.5473 53.7058 87.7852 54.6247C89.0498 55.5631 91.4456 55.3185 92.1641 53.8732C92.5832 53.0295 92.4399 51.647 92.4399 50.4723C93.5123 50.3831 93.2101 49.3023 92.6071 49.3023C91.0756 49.3023 90.434 49.0907 90.434 49.8037C90.434 50.3116 90.724 50.3712 91.1027 50.4723C91.1027 51.6687 91.619 54.149 89.7655 54.149C87.7841 54.149 88.0938 52.4093 88.0938 50.4723C89.1661 50.3831 88.864 49.3023 88.2609 49.3023C86.7293 49.3023 86.0879 49.0907 86.0879 49.8037Z" fill="#1B1918"/>
<path fill-rule="evenodd" clip-rule="evenodd" d="M108.487 52.3108C108.487 49.7488 111.997 49.945 111.997 51.9766C111.997 54.1888 111.538 54.1491 109.657 54.1491C108.945 54.1491 108.487 53.115 108.487 52.3108ZM107.149 52.1436C107.149 56.4932 113.334 56.2304 113.334 52.478C113.334 47.8534 107.149 48.7095 107.149 52.1436Z" fill="#1B1918"/>
<path fill-rule="evenodd" clip-rule="evenodd" d="M51.3177 52.3108C51.3177 49.7488 54.828 49.945 54.828 51.9766C54.828 54.1888 54.3686 54.1491 52.4879 54.1491C51.7761 54.1491 51.3177 53.115 51.3177 52.3108ZM49.9805 52.1436C49.9805 56.4932 56.1653 56.2304 56.1653 52.478C56.1653 47.8534 49.9805 48.7095 49.9805 52.1436Z" fill="#1B1918"/>
<path fill-rule="evenodd" clip-rule="evenodd" d="M34.1005 50.9737C34.6389 51.3681 34.9428 52.3594 35.2707 52.9792H33.2648L34.1005 50.9737ZM32.4291 50.4723C33.3035 50.5467 32.7311 50.3128 32.9305 50.8065L32.0638 52.4468C31.9228 52.7433 31.9061 52.7384 31.7092 53.0953C31.4812 53.5084 31.3584 53.7852 31.1331 54.2102C30.6457 55.13 30.6287 55.1518 31.7604 55.1518C32.3015 55.1518 32.3747 54.5673 32.5961 54.149H35.9394C36.0602 54.6677 36.1528 54.6332 36.2737 55.1518H37.6109C37.4529 54.4743 36.5975 52.84 36.2456 52.1715L35.1874 50.0542C34.7983 49.297 35.341 49.4695 32.4291 49.4695V50.4723Z" fill="#1B1918"/>
<path fill-rule="evenodd" clip-rule="evenodd" d="M3.67768 50.9737C4.21608 51.3681 4.51973 52.3594 4.84767 52.9792H2.84174C2.9531 52.5015 3.01334 52.3937 3.19991 52.0001C3.37029 51.6403 3.50295 51.3035 3.67768 50.9737ZM2.00602 50.4723C2.88065 50.5467 2.30808 50.3128 2.5075 50.8065L0.710274 54.2102C0.222797 55.13 0.205839 55.1518 1.33732 55.1518C1.87868 55.1518 1.95193 54.5673 2.17326 54.149H5.51639C5.63721 54.6677 5.72981 54.6332 5.85064 55.1518H7.18805C7.0301 54.4743 6.17462 52.84 5.8226 52.1715L4.76435 50.0542C4.37541 49.297 4.91817 49.4695 2.00602 49.4695V50.4723Z" fill="#1B1918"/>
<path fill-rule="evenodd" clip-rule="evenodd" d="M71.8792 50.8069C71.8792 53.3755 75.7238 51.9093 75.7238 53.3138C75.7238 53.9486 75.0125 54.1493 74.3866 54.1493C73.2008 54.1493 73.2118 53.7583 72.5479 53.3138C72.0367 53.4328 71.9054 53.5737 71.5449 53.8151C71.8685 54.2984 71.8231 54.34 72.3382 54.6934C73.397 55.4196 75.4573 55.2585 76.2839 54.7094C77.3548 53.9979 77.4995 52.2068 75.5195 51.6797C74.2703 51.3473 73.6908 51.7646 73.0494 50.8069C74.0221 49.3544 75.567 50.6396 75.7238 50.6396C76.234 50.6396 76.3984 50.4792 76.7268 50.3055C76.5974 49.8212 76.4233 49.716 76.0377 49.4904C74.8156 48.7747 71.8792 48.9975 71.8792 50.8069Z" fill="#1B1918"/>
<path fill-rule="evenodd" clip-rule="evenodd" d="M38.6143 49.9711C38.6143 51.0214 38.5179 51.1409 39.2829 51.1409C39.7908 51.1409 39.8504 50.8511 39.9517 50.4725H40.6202V54.6505C40.6202 55.2834 41.0101 55.1519 41.9576 55.1519V50.4725H42.7933C42.8825 51.5445 43.9635 51.2425 43.9635 50.6395V49.4697H39.1157C38.7305 49.4697 38.6143 49.586 38.6143 49.9711Z" fill="#1B1918"/>
<path fill-rule="evenodd" clip-rule="evenodd" d="M78.8994 49.9711C78.8994 51.0214 78.8029 51.1409 79.5681 51.1409C80.0759 51.1409 80.1355 50.8511 80.2366 50.4725H80.9053V54.6505C80.9053 55.2834 81.2953 55.1519 82.2426 55.1519V50.4725H83.0785C83.1677 51.5445 84.2485 51.2425 84.2485 50.6395V49.4697H79.4009C79.0157 49.4697 78.8994 49.586 78.8994 49.9711Z" fill="#1B1918"/>
<path fill-rule="evenodd" clip-rule="evenodd" d="M17.2178 50.4725C17.6896 50.5118 17.8863 50.4685 17.8863 50.9739V55.1519H19.0565V49.4697H17.2178V50.4725Z" fill="#1B1918"/>
<path fill-rule="evenodd" clip-rule="evenodd" d="M45.8018 50.4725C46.2736 50.5118 46.4705 50.4685 46.4705 50.9739V55.1519H47.6405V49.4697H45.8018V50.4725Z" fill="#1B1918"/>
<path fill-rule="evenodd" clip-rule="evenodd" d="M103.138 50.4725C103.61 50.5118 103.806 50.4685 103.806 50.9739V55.1519H104.976V49.4697H103.138V50.4725Z" fill="#1B1918"/>
</svg>
