<?xml version="1.0" standalone="no"?>
<!DOCTYPE svg PUBLIC "-//W3C//DTD SVG 20010904//EN"
 "http://www.w3.org/TR/2001/REC-SVG-20010904/DTD/svg10.dtd">
<svg version="1.0" xmlns="http://www.w3.org/2000/svg"
 width="1080.000000pt" height="1080.000000pt" viewBox="0 0 1080.000000 1080.000000"
 preserveAspectRatio="xMidYMid meet">

<g transform="translate(0.000000,1080.000000) scale(0.100000,-0.100000)"
fill="#000000" stroke="none">
<path d="M0 5400 l0 -5400 5400 0 5400 0 0 5400 0 5400 -5400 0 -5400 0 0
-5400z m6695 2259 c92 -32 144 -70 364 -269 64 -58 141 -127 171 -154 30 -26
93 -85 140 -130 47 -44 101 -94 120 -110 19 -15 62 -54 96 -85 33 -31 82 -74
109 -96 48 -39 112 -94 145 -125 29 -27 193 -175 250 -226 72 -63 186 -164
330 -294 63 -56 135 -119 160 -139 25 -20 54 -45 65 -56 45 -44 197 -179 226
-201 18 -13 40 -31 49 -41 10 -10 43 -43 74 -73 31 -30 65 -72 75 -95 52 -111
54 -122 54 -240 -1 -110 -2 -118 -34 -182 -36 -73 -109 -153 -233 -251 -39
-31 -77 -63 -86 -72 -8 -8 -47 -40 -85 -69 -39 -30 -117 -96 -175 -145 -58
-50 -113 -97 -124 -106 -10 -8 -71 -60 -135 -115 -64 -55 -150 -127 -191 -160
-40 -33 -94 -78 -120 -100 -26 -22 -64 -53 -85 -70 -71 -56 -180 -145 -233
-192 -30 -26 -66 -56 -81 -67 -15 -12 -54 -44 -87 -73 -62 -55 -242 -208 -364
-308 -39 -33 -104 -87 -143 -120 -109 -92 -147 -119 -207 -150 -51 -27 -63
-29 -180 -29 -118 -1 -128 1 -185 28 -33 16 -73 38 -89 50 -149 106 -229 321
-180 487 41 138 91 199 309 374 55 44 134 109 176 145 41 36 106 90 143 120
38 30 80 65 95 78 14 13 58 49 96 80 39 31 113 93 165 138 52 44 104 87 116
95 11 8 50 40 85 71 35 31 80 70 99 87 29 26 33 32 20 41 -10 6 -908 10 -2640
10 -2506 1 -2629 1 -2715 19 -105 21 -132 33 -201 82 -139 101 -204 262 -178
438 6 42 21 98 34 125 25 52 121 162 155 177 11 5 34 18 51 28 86 52 -56 50
2785 52 1611 1 2644 5 2659 11 25 9 24 10 -46 76 -39 37 -102 94 -140 127 -37
33 -107 97 -154 141 -47 45 -107 101 -135 124 -27 23 -61 52 -75 64 -45 38
-254 220 -290 252 -345 308 -359 323 -401 433 -41 106 -34 230 20 352 42 94
138 183 249 230 88 37 215 41 307 8z"/>
</g>
</svg>
